<mxfile host="app.diagrams.net" modified="2022-10-27T14:06:51.106Z" agent="5.0 (Windows NT 10.0; Win64; x64) AppleWebKit/537.36 (KHTML, like Gecko) Chrome/106.0.0.0 Safari/537.36" etag="i2tSFIvBRpNHIed4xdsY" version="20.5.1" type="github">
  <diagram name="Page-1" id="13e1069c-82ec-6db2-03f1-153e76fe0fe0">
    <mxGraphModel dx="1153" dy="543" grid="1" gridSize="10" guides="1" tooltips="1" connect="1" arrows="1" fold="1" page="1" pageScale="1" pageWidth="1100" pageHeight="850" background="none" math="0" shadow="0">
      <root>
        <mxCell id="0" />
        <mxCell id="1" parent="0" />
        <mxCell id="7baba1c4bc27f4b0-2" value="Wifi AP" style="shape=umlLifeline;perimeter=lifelinePerimeter;whiteSpace=wrap;html=1;container=1;collapsible=0;recursiveResize=0;outlineConnect=0;rounded=1;shadow=0;comic=0;labelBackgroundColor=none;strokeWidth=1;fontFamily=Verdana;fontSize=12;align=center;" parent="1" vertex="1">
          <mxGeometry x="240" y="80" width="100" height="440" as="geometry" />
        </mxCell>
        <mxCell id="7baba1c4bc27f4b0-10" value="" style="html=1;points=[];perimeter=orthogonalPerimeter;rounded=0;shadow=0;comic=0;labelBackgroundColor=none;strokeWidth=1;fontFamily=Verdana;fontSize=12;align=center;" parent="7baba1c4bc27f4b0-2" vertex="1">
          <mxGeometry x="45" y="100" width="10" height="160" as="geometry" />
        </mxCell>
        <mxCell id="7baba1c4bc27f4b0-3" value="Browser" style="shape=umlLifeline;perimeter=lifelinePerimeter;whiteSpace=wrap;html=1;container=1;collapsible=0;recursiveResize=0;outlineConnect=0;rounded=1;shadow=0;comic=0;labelBackgroundColor=none;strokeWidth=1;fontFamily=Verdana;fontSize=12;align=center;" parent="1" vertex="1">
          <mxGeometry x="400" y="80" width="100" height="440" as="geometry" />
        </mxCell>
        <mxCell id="7baba1c4bc27f4b0-13" value="" style="html=1;points=[];perimeter=orthogonalPerimeter;rounded=0;shadow=0;comic=0;labelBackgroundColor=none;strokeWidth=1;fontFamily=Verdana;fontSize=12;align=center;" parent="7baba1c4bc27f4b0-3" vertex="1">
          <mxGeometry x="45" y="260" width="10" height="130" as="geometry" />
        </mxCell>
        <mxCell id="7baba1c4bc27f4b0-4" value="WebServer" style="shape=umlLifeline;perimeter=lifelinePerimeter;whiteSpace=wrap;html=1;container=1;collapsible=0;recursiveResize=0;outlineConnect=0;rounded=1;shadow=0;comic=0;labelBackgroundColor=none;strokeWidth=1;fontFamily=Verdana;fontSize=12;align=center;size=30;" parent="1" vertex="1">
          <mxGeometry x="550" y="80" width="100" height="440" as="geometry" />
        </mxCell>
        <mxCell id="7baba1c4bc27f4b0-16" value="" style="html=1;points=[];perimeter=orthogonalPerimeter;rounded=0;shadow=0;comic=0;labelBackgroundColor=none;strokeWidth=1;fontFamily=Verdana;fontSize=12;align=center;" parent="7baba1c4bc27f4b0-4" vertex="1">
          <mxGeometry x="45" y="290" width="10" height="120" as="geometry" />
        </mxCell>
        <mxCell id="7baba1c4bc27f4b0-9" value="" style="html=1;points=[];perimeter=orthogonalPerimeter;rounded=0;shadow=0;comic=0;labelBackgroundColor=none;strokeWidth=1;fontFamily=Verdana;fontSize=12;align=center;" parent="1" vertex="1">
          <mxGeometry x="145" y="180" width="10" height="340" as="geometry" />
        </mxCell>
        <mxCell id="gcLDNLVhy843o3ndm6SH-2" value="User" style="shape=umlActor;verticalLabelPosition=bottom;verticalAlign=top;html=1;" vertex="1" parent="1">
          <mxGeometry x="136" y="80" width="30" height="60" as="geometry" />
        </mxCell>
        <mxCell id="gcLDNLVhy843o3ndm6SH-9" value="" style="endArrow=classic;html=1;rounded=0;entryX=0.022;entryY=0.047;entryDx=0;entryDy=0;entryPerimeter=0;" edge="1" parent="1">
          <mxGeometry width="50" height="50" relative="1" as="geometry">
            <mxPoint x="155" y="199" as="sourcePoint" />
            <mxPoint x="285.22" y="199.81000000000006" as="targetPoint" />
            <Array as="points">
              <mxPoint x="240" y="199" />
            </Array>
          </mxGeometry>
        </mxCell>
        <mxCell id="gcLDNLVhy843o3ndm6SH-10" value="&lt;font style=&quot;font-size: 12px;&quot;&gt;Connect request&lt;/font&gt;" style="edgeLabel;html=1;align=center;verticalAlign=middle;resizable=0;points=[];" vertex="1" connectable="0" parent="gcLDNLVhy843o3ndm6SH-9">
          <mxGeometry x="-0.1078" y="-1" relative="1" as="geometry">
            <mxPoint y="-10" as="offset" />
          </mxGeometry>
        </mxCell>
        <mxCell id="gcLDNLVhy843o3ndm6SH-12" value="" style="endArrow=classic;html=1;rounded=0;fontSize=12;exitX=0.022;exitY=0.283;exitDx=0;exitDy=0;exitPerimeter=0;entryX=1.133;entryY=0.194;entryDx=0;entryDy=0;entryPerimeter=0;" edge="1" parent="1">
          <mxGeometry width="50" height="50" relative="1" as="geometry">
            <mxPoint x="285.22" y="239.09000000000003" as="sourcePoint" />
            <mxPoint x="156.32999999999993" y="239.36" as="targetPoint" />
          </mxGeometry>
        </mxCell>
        <mxCell id="gcLDNLVhy843o3ndm6SH-13" value="send IP" style="edgeLabel;html=1;align=center;verticalAlign=middle;resizable=0;points=[];fontSize=12;" vertex="1" connectable="0" parent="gcLDNLVhy843o3ndm6SH-12">
          <mxGeometry x="-0.2551" y="4" relative="1" as="geometry">
            <mxPoint x="-17" y="-17" as="offset" />
          </mxGeometry>
        </mxCell>
        <mxCell id="gcLDNLVhy843o3ndm6SH-16" value="" style="endArrow=classic;html=1;rounded=0;fontSize=12;entryX=0.2;entryY=0.375;entryDx=0;entryDy=0;entryPerimeter=0;exitX=1.222;exitY=0.194;exitDx=0;exitDy=0;exitPerimeter=0;" edge="1" parent="1">
          <mxGeometry width="50" height="50" relative="1" as="geometry">
            <mxPoint x="157.22000000000003" y="278.36" as="sourcePoint" />
            <mxPoint x="287" y="279.25" as="targetPoint" />
          </mxGeometry>
        </mxCell>
        <mxCell id="gcLDNLVhy843o3ndm6SH-17" value="confirm IP" style="edgeLabel;html=1;align=center;verticalAlign=middle;resizable=0;points=[];fontSize=12;" vertex="1" connectable="0" parent="gcLDNLVhy843o3ndm6SH-16">
          <mxGeometry x="0.3186" y="-1" relative="1" as="geometry">
            <mxPoint x="-23" y="-13" as="offset" />
          </mxGeometry>
        </mxCell>
        <mxCell id="gcLDNLVhy843o3ndm6SH-18" value="" style="endArrow=classic;html=1;rounded=0;fontSize=12;exitX=0.022;exitY=0.283;exitDx=0;exitDy=0;exitPerimeter=0;entryX=1.133;entryY=0.194;entryDx=0;entryDy=0;entryPerimeter=0;" edge="1" parent="1">
          <mxGeometry width="50" height="50" relative="1" as="geometry">
            <mxPoint x="283.22" y="319.09000000000003" as="sourcePoint" />
            <mxPoint x="154.32999999999993" y="319.36" as="targetPoint" />
          </mxGeometry>
        </mxCell>
        <mxCell id="gcLDNLVhy843o3ndm6SH-19" value="ack connection" style="edgeLabel;html=1;align=center;verticalAlign=middle;resizable=0;points=[];fontSize=12;" vertex="1" connectable="0" parent="gcLDNLVhy843o3ndm6SH-18">
          <mxGeometry x="-0.2551" y="4" relative="1" as="geometry">
            <mxPoint x="-17" y="-17" as="offset" />
          </mxGeometry>
        </mxCell>
        <mxCell id="gcLDNLVhy843o3ndm6SH-20" value="" style="endArrow=classic;html=1;rounded=0;fontSize=12;exitX=1.133;exitY=0.416;exitDx=0;exitDy=0;exitPerimeter=0;" edge="1" parent="1">
          <mxGeometry width="50" height="50" relative="1" as="geometry">
            <mxPoint x="156.32999999999993" y="367.03999999999996" as="sourcePoint" />
            <mxPoint x="445" y="367.03999999999996" as="targetPoint" />
          </mxGeometry>
        </mxCell>
        <mxCell id="gcLDNLVhy843o3ndm6SH-21" value="Open Page URL" style="edgeLabel;html=1;align=center;verticalAlign=middle;resizable=0;points=[];fontSize=12;" vertex="1" connectable="0" parent="gcLDNLVhy843o3ndm6SH-20">
          <mxGeometry x="0.1835" relative="1" as="geometry">
            <mxPoint x="-32" y="-10" as="offset" />
          </mxGeometry>
        </mxCell>
        <mxCell id="gcLDNLVhy843o3ndm6SH-22" style="edgeStyle=orthogonalEdgeStyle;rounded=0;orthogonalLoop=1;jettySize=auto;html=1;fontSize=12;" edge="1" parent="1" source="7baba1c4bc27f4b0-13">
          <mxGeometry relative="1" as="geometry">
            <mxPoint x="590" y="390" as="targetPoint" />
            <Array as="points">
              <mxPoint x="490" y="390" />
              <mxPoint x="490" y="390" />
            </Array>
          </mxGeometry>
        </mxCell>
        <mxCell id="gcLDNLVhy843o3ndm6SH-23" value="Retrive WebPage" style="edgeLabel;html=1;align=center;verticalAlign=middle;resizable=0;points=[];fontSize=12;" vertex="1" connectable="0" parent="gcLDNLVhy843o3ndm6SH-22">
          <mxGeometry x="0.1819" y="2" relative="1" as="geometry">
            <mxPoint x="-15" y="-8" as="offset" />
          </mxGeometry>
        </mxCell>
        <mxCell id="gcLDNLVhy843o3ndm6SH-25" value="" style="endArrow=classic;html=1;rounded=0;fontSize=12;" edge="1" parent="1">
          <mxGeometry width="50" height="50" relative="1" as="geometry">
            <mxPoint x="590" y="440" as="sourcePoint" />
            <mxPoint x="460" y="440" as="targetPoint" />
          </mxGeometry>
        </mxCell>
        <mxCell id="gcLDNLVhy843o3ndm6SH-26" value="Sending Webpage Data" style="edgeLabel;html=1;align=center;verticalAlign=middle;resizable=0;points=[];fontSize=12;" vertex="1" connectable="0" parent="gcLDNLVhy843o3ndm6SH-25">
          <mxGeometry x="-0.2387" y="-2" relative="1" as="geometry">
            <mxPoint x="-10" y="-13" as="offset" />
          </mxGeometry>
        </mxCell>
        <mxCell id="gcLDNLVhy843o3ndm6SH-27" value="" style="endArrow=classic;html=1;rounded=0;fontSize=12;exitX=-0.244;exitY=0.924;exitDx=0;exitDy=0;exitPerimeter=0;" edge="1" parent="1" source="7baba1c4bc27f4b0-13">
          <mxGeometry width="50" height="50" relative="1" as="geometry">
            <mxPoint x="480" y="380" as="sourcePoint" />
            <mxPoint x="160" y="460" as="targetPoint" />
          </mxGeometry>
        </mxCell>
        <mxCell id="gcLDNLVhy843o3ndm6SH-28" value="Display to the Screen" style="edgeLabel;html=1;align=center;verticalAlign=middle;resizable=0;points=[];fontSize=12;" vertex="1" connectable="0" parent="gcLDNLVhy843o3ndm6SH-27">
          <mxGeometry x="-0.1431" y="3" relative="1" as="geometry">
            <mxPoint x="-11" y="-13" as="offset" />
          </mxGeometry>
        </mxCell>
      </root>
    </mxGraphModel>
  </diagram>
</mxfile>
